<svg xmlns="http://www.w3.org/2000/svg" xmlns:xlink="http://www.w3.org/1999/xlink" id="Layer_1" width="389.052" height="233.366" x="0" y="0" enable-background="new 0 0 389.052 233.366" version="1.1" viewBox="0 0 389.052 233.366" xml:space="preserve"><g><path fill="#A6C1D8" fill-rule="evenodd" d="M2.895,112.627L183.72,6.689 c3.955-2.317,10.479-2.24,14.572,0.173l187.121,110.312c4.093,2.413,4.205,6.247,0.25,8.564L204.838,231.677 c-3.955,2.317-10.479,2.239-14.572-0.174L3.145,121.192C-0.949,118.78-1.061,114.945,2.895,112.627z" clip-rule="evenodd"/><path fill="#A6C1D8" fill-rule="evenodd" d="M0.052,112.09v5l389,5v-5L0.052,112.09z" clip-rule="evenodd"/><path fill="#F3F5FB" fill-rule="evenodd" d="M2.895,107.627L183.72,1.689 c3.955-2.317,10.479-2.24,14.572,0.173l187.121,110.312c4.093,2.413,4.205,6.247,0.25,8.564L204.838,226.677 c-3.955,2.317-10.479,2.239-14.572-0.174L3.145,116.192C-0.949,113.78-1.061,109.945,2.895,107.627z" clip-rule="evenodd"/></g></svg>