<svg xmlns="http://www.w3.org/2000/svg" xmlns:xlink="http://www.w3.org/1999/xlink" id="Layer_1" width="87.637" height="57.051" x="0" y="0" enable-background="new 0 0 87.637 57.051" version="1.1" viewBox="0 0 87.637 57.051" xml:space="preserve"><g><path fill="#8EB1DD" fill-rule="evenodd" d="M43.819,3.701c24.2,0,43.818,11.942,43.818,26.675 c0,14.731-19.618,26.675-43.818,26.675S0,45.107,0,30.376C0,15.644,19.619,3.701,43.819,3.701z" clip-rule="evenodd"/><path fill="#E3EBF7" fill-rule="evenodd" d="M43.819,0c24.2,0,43.818,11.942,43.818,26.675 c0,14.731-19.618,26.675-43.818,26.675S0,41.406,0,26.675C0,11.942,19.619,0,43.819,0z" clip-rule="evenodd"/><radialGradient id="SVGID_1_" cx="43.819" cy="26.675" r="36.274" gradientUnits="userSpaceOnUse"><stop offset="0" style="stop-color:#67bdea;stop-opacity:.6"/><stop offset="1" style="stop-color:#67bdea;stop-opacity:0"/></radialGradient><path fill="url(#SVGID_1_)" fill-rule="evenodd" d="M43.819,0c24.2,0,43.818,11.942,43.818,26.675 c0,14.731-19.618,26.674-43.818,26.674S0,41.406,0,26.675C0,11.943,19.619,0,43.819,0z" clip-rule="evenodd"/></g></svg>